<svg xmlns="http://www.w3.org/2000/svg" viewBox="0 0 33.61 38.81"><defs><style>.cls-1{fill:#1a1a1a;}.cls-2{fill:#41ebfe;}.cls-3{fill:#fcfd42;}.cls-4{fill:#fc2d61;}</style></defs><g id="Layer_2" data-name="Layer 2"><g id="Layer_1-2" data-name="Layer 1"><polygon class="cls-1" points="2.52 11.16 16.8 2.91 31.09 11.16 31.09 27.65 16.8 35.9 2.52 27.65 2.52 11.16"/><polygon class="cls-2" points="2.52 27.65 2.52 11.16 0 9.7 0 29.11 16.8 38.81 16.8 35.9 2.52 27.65"/><path class="cls-2" d="M6.15,28.75V24.51C9.48,26.44,13,28.39,16.3,30.32c0-.91,0-2.25,0-3.2C13,25.17,9.5,23.2,6.15,21.26V17.09C9.48,19,13,20.76,16.3,22.68c0-.79,0-2,0-2.84L3.45,12.43V27.26L6,28.75Z"/><polygon class="cls-3" points="16.8 0 0 9.7 2.52 11.16 16.8 2.91 31.09 11.16 33.61 9.7 16.8 0"/><path class="cls-3" d="M9,8.7l10.1,5.84-1.28.74h0l-1,.6C13.44,14,10,11.94,6.65,10c-.74.41-2,1.13-2.69,1.55,4.25,2.46,8.58,5,12.85,7.43L18,18.32h0c.17-.11,1.22-.71,1.4-.81v0c.07-.06,1.26-.69,1.28-.74l3.85-2.21.07-.11c-3.35-1.92-6.76-3.91-10.1-5.83l1-.59h0c.15-.1,1.1-.65,1.29-.75,3.36,1.93,6.79,4,10.17,5.86.72-.43,2-1.13,2.69-1.56L16.81,4.13C14.34,5.63,11.42,7.14,9,8.7Z"/><polygon class="cls-4" points="31.09 11.16 31.09 27.65 16.8 35.9 16.8 38.81 33.61 29.11 33.61 9.7 31.09 11.16"/><polygon class="cls-4" points="30.16 24.12 21.82 28.96 30.14 15.56 30.16 15.54 30.16 12.39 17.3 19.85 17.3 22.95 25.57 18.19 17.3 31.58 17.3 34.68 30.16 27.27 30.16 24.12"/></g></g></svg>