<svg xmlns="http://www.w3.org/2000/svg" xmlns:xlink="http://www.w3.org/1999/xlink" viewBox="0 0 33.61 38.81"><defs><style>.cls-1{fill:none;}.cls-2{isolation:isolate;}.cls-3{fill:#1a1a1a;}.cls-4{fill:#41ebfe;}.cls-5{fill:#fcfd42;}.cls-6{fill:#fc2d61;}.cls-7{mix-blend-mode:screen;}.cls-8{clip-path:url(#clip-path);}.cls-9{clip-path:url(#clip-path-2);}.cls-10{clip-path:url(#clip-path-3);}</style><clipPath id="clip-path"><polygon class="cls-1" points="0 29.11 16.31 19.84 16.8 38.81 0 29.11"/></clipPath><clipPath id="clip-path-2"><polygon class="cls-1" points="16.67 35.9 27.27 23.54 30.03 23.54 30.32 26.09 30.96 27.65 33.48 29.11 36.32 31.27 16.05 40.09 16.67 35.9"/></clipPath><clipPath id="clip-path-3"><polygon class="cls-1" points="16.8 0 16.81 18.99 33.61 9.7 16.8 0"/></clipPath></defs><g class="cls-2"><g id="Layer_2" data-name="Layer 2"><g id="Layer_1-2" data-name="Layer 1"><polygon class="cls-3" points="1.25 10.43 17.3 1.65 32.01 10.43 32.01 28.23 16.63 37.43 1.25 28.49 1.25 10.43"/><polygon class="cls-4" points="2.52 27.65 2.52 11.16 0 9.7 0 29.11 16.8 38.81 16.8 35.9 2.52 27.65"/><path class="cls-4" d="M6.15,28.75V24.51l10.1,5.83a31.3,31.3,0,0,0,.06-3.22C13,25.17,9.5,23.2,6.15,21.26V17.09l10.1,5.83a28.63,28.63,0,0,0,.06-3.08l-1.16-.67L3.45,12.43V27.26L6,28.75Z"/><polygon class="cls-5" points="16.8 0 0 9.7 2.52 11.16 16.8 2.91 31.09 11.16 33.61 9.7 16.8 0"/><path class="cls-5" d="M9,8.7l10.1,5.84-1.28.74h0l-1,.6C13.44,14,10,11.94,6.65,10c-.74.41-2,1.13-2.69,1.55,4.25,2.46,8.58,5,12.85,7.43L18,18.32h0c.17-.11,1.22-.71,1.4-.81v0c.07-.06,1.26-.69,1.28-.74l3.85-2.21.07-.11c-3.35-1.92-6.76-3.91-10.1-5.83l1-.59h0c.15-.1,1.1-.65,1.29-.75,3.36,1.93,6.79,4,10.17,5.86.72-.43,2-1.13,2.69-1.56L16.81,4.13C14.34,5.63,11.42,7.14,9,8.7Z"/><polygon class="cls-6" points="31.09 11.16 31.09 27.65 16.8 35.9 16.8 38.81 33.61 29.11 33.61 9.7 31.09 11.16"/><polygon class="cls-6" points="30.16 24.12 21.82 28.96 30.14 15.56 30.16 15.54 30.16 12.39 17.3 19.85 17.3 22.95 25.57 18.19 17.3 31.58 17.3 34.68 30.16 27.27 30.16 24.12"/><g class="cls-7"><g class="cls-8"><polygon class="cls-4" points="2.52 27.65 2.52 11.16 0 9.7 0 29.11 16.8 38.81 16.8 35.9 2.52 27.65"/><path class="cls-4" d="M6.15,28.75V24.51l10.1,5.83a31.3,31.3,0,0,0,.06-3.22C13,25.17,9.5,23.2,6.15,21.26V17.09l10.1,5.83a28.63,28.63,0,0,0,.06-3.08l-1.16-.67L3.45,12.43V27.26L6,28.75Z"/></g></g><g class="cls-7"><g class="cls-9"><polygon class="cls-6" points="30.96 11.16 30.96 27.65 16.67 35.9 16.67 38.81 33.48 29.11 33.48 9.7 30.96 11.16"/><polygon class="cls-6" points="30.03 24.12 21.69 28.96 30.01 15.56 30.03 15.54 30.03 12.39 17.17 19.85 17.17 22.95 25.43 18.19 17.17 31.58 17.17 34.68 30.03 27.27 30.03 24.12"/></g></g><g class="cls-7"><g class="cls-10"><polygon class="cls-5" points="16.8 0 0 9.7 2.52 11.16 16.8 2.91 31.09 11.16 33.61 9.7 16.8 0"/><path class="cls-5" d="M9,8.7l10.1,5.84-1.28.74h0l-1,.6C13.44,14,10,11.94,6.65,10c-.74.41-2,1.13-2.69,1.55,4.25,2.46,8.58,5,12.85,7.43L18,18.32h0c.17-.11,1.22-.71,1.4-.81v0c.07-.06,1.26-.69,1.28-.74l3.85-2.21.07-.11c-3.35-1.92-6.76-3.91-10.1-5.83l1-.59h0c.15-.1,1.1-.65,1.29-.75,3.36,1.93,6.79,4,10.17,5.86.72-.43,2-1.13,2.69-1.56L16.81,4.13C14.34,5.63,11.42,7.14,9,8.7Z"/></g></g></g></g></g></svg>